<svg id="Capa_1" enable-background="new 0 0 512 512" height="512" viewBox="0 0 512 512" width="512" xmlns="http://www.w3.org/2000/svg"><g id="XMLID_1190_"><g id="XMLID_29_"><path id="XMLID_73_" d="m482 104h-69c-5.523 0-10 4.477-10 10s4.477 10 10 10h69c5.514 0 10 4.486 10 10v143.556c-3.143-1.119-6.524-1.733-10.046-1.733s-6.902.615-10.045 1.733v-17.191c0-16.567-13.479-30.045-30.046-30.045-3.522 0-6.902.615-10.045 1.733v-6.007c0-3.522-.615-6.902-1.733-10.045h25.915c5.523 0 10-4.477 10-10v-44c0-5.523-4.477-10-10-10h-48c-5.523 0-10 4.477-10 10v34.245c-8.222 1.035-15.42 5.399-20.193 11.703.125-.63.193-1.281.193-1.948v-44c0-5.523-4.477-10-10-10h-48c-5.523 0-10 4.477-10 10v44c0 5.523 4.477 10 10 10h48c2.435 0 4.664-.872 6.399-2.318-1.711 3.774-2.672 7.957-2.672 12.363v6.007c-3.143-1.119-6.524-1.733-10.046-1.733-8.715 0-16.572 3.733-22.065 9.681h-59.616c-5.523 0-10 4.477-10 10v44c0 5.523 4.477 10 10 10h51.635v28h-151.27v-28h51.635c5.523 0 10-4.477 10-10v-44c0-5.523-4.477-10-10-10h-59.615c-5.493-5.947-13.35-9.681-22.066-9.681-3.522 0-6.902.615-10.045 1.733v-6.007c0-4.406-.961-8.589-2.672-12.363 1.734 1.446 3.964 2.318 6.399 2.318h48c5.523 0 10-4.477 10-10v-44c0-5.523-4.477-10-10-10h-48c-5.523 0-10 4.477-10 10v44c0 .667.068 1.317.193 1.948-4.772-6.304-11.971-10.667-20.193-11.703v-34.246c0-5.523-4.477-10-10-10h-48.001c-5.523 0-10 4.477-10 10v44c0 5.523 4.477 10 10 10h25.916c-1.119 3.143-1.733 6.523-1.733 10.045v6.007c-3.143-1.119-6.524-1.733-10.046-1.733-16.567 0-30.045 13.479-30.045 30.045v17.191c-3.143-1.119-6.524-1.733-10.046-1.733s-6.902.615-10.045 1.733v-143.555c0-5.514 4.486-10 10-10h293c5.523 0 10-4.477 10-10s-4.477-10-10-10h-57v-10c0-20.953-17.047-38-38-38h-42c-9.925 0-18-8.075-18-18s8.075-18 18-18h70c5.523 0 10-4.477 10-10s-4.477-10-10-10h-70c-20.953 0-38 17.047-38 38s17.047 38 38 38h42c9.925 0 18 8.075 18 18v10h-216.001c-16.542 0-30 13.458-30 30v294.796c0 22.063 8.568 42.83 24.125 58.475l21.659 21.78c1.955 1.965 4.522 2.949 7.091 2.949 2.55 0 5.101-.969 7.051-2.909 3.916-3.895 3.934-10.226.04-14.142l-21.659-21.78c-11.806-11.872-18.307-27.63-18.307-44.373v-122.928c0-5.539 4.506-10.045 10.046-10.045 5.539 0 10.045 4.506 10.045 10.045v61.714c0 5.523 4.477 10 10 10s10-4.477 10-10v-107.217c0-5.539 4.506-10.045 10.046-10.045 5.539 0 10.045 4.506 10.045 10.045v107.217c0 5.523 4.477 10 10 10s10-4.477 10-10v-141.537c0-5.539 4.506-10.045 10.046-10.045 5.539 0 10.045 4.506 10.045 10.045v141.537c0 5.523 4.477 10 10 10s10-4.477 10-10v-107.217c0-5.539 4.506-10.045 10.046-10.045 5.539 0 10.045 4.506 10.045 10.045v152.915c0 5.059 3.778 9.321 8.801 9.928 5.025.607 9.707-2.633 10.912-7.547l11.246-45.871c1.311-5.347 6.583-8.788 12.007-7.83 2.798.493 5.223 2.056 6.83 4.399 1.606 2.344 2.188 5.169 1.638 7.957l-12.021 60.963c-2.411 12.227-8.331 23.36-17.118 32.197l-27.32 27.473c-3.894 3.916-3.876 10.248.04 14.142 1.951 1.94 4.501 2.909 7.051 2.909 2.568 0 5.137-.984 7.091-2.949l27.32-27.473c11.581-11.646 19.381-26.318 22.559-42.431l12.021-60.963c1.598-8.104-.093-16.319-4.763-23.132-.739-1.078-1.543-2.091-2.396-3.052h63.477c-.853.961-1.657 1.975-2.396 3.052-4.669 6.813-6.361 15.029-4.763 23.132l12.021 60.963c3.177 16.113 10.978 30.785 22.559 42.431l27.32 27.473c1.955 1.965 4.522 2.949 7.091 2.949 2.55 0 5.101-.969 7.051-2.909 3.916-3.895 3.934-10.226.04-14.142l-27.32-27.473c-8.788-8.837-14.707-19.971-17.118-32.197l-12.021-60.963c-.55-2.788.032-5.613 1.638-7.957s4.032-3.906 6.83-4.399c5.418-.955 10.695 2.483 12.006 7.83l11.246 45.871c1.205 4.913 5.886 8.159 10.912 7.547 5.022-.606 8.801-4.869 8.801-9.928v-152.915c0-5.539 4.506-10.045 10.046-10.045 5.539 0 10.045 4.506 10.045 10.045v107.217c0 5.523 4.477 10 10 10s10-4.477 10-10v-141.537c0-5.539 4.507-10.045 10.046-10.045s10.045 4.506 10.045 10.045v141.537c0 5.523 4.477 10 10 10s10-4.477 10-10v-107.217c0-5.539 4.506-10.045 10.046-10.045 5.539 0 10.045 4.506 10.045 10.045v107.217c0 5.523 4.477 10 10 10s10-4.477 10-10v-61.714c0-5.539 4.506-10.045 10.046-10.045 5.539 0 10.045 4.506 10.045 10.045v122.928c0 16.742-6.501 32.5-18.307 44.372l-21.659 21.78c-3.894 3.916-3.876 10.248.04 14.142 1.951 1.94 4.501 2.909 7.051 2.909 2.568 0 5.137-.984 7.091-2.949l21.659-21.78c15.557-15.644 24.125-36.411 24.125-58.474v-294.796c0-16.542-13.458-30-30-30zm-124 92h-28v-24h28zm-204-24h28v24h-28zm-88 0h28v24h-28zm224 112v-24h41.635v.365 23.635zm-109.635-24h41.635v24h-41.635v-23.635zm237.635-88h28v24h-28z"/><path id="XMLID_1133_" d="m232 152c-5.523 0-10 4.477-10 10v44c0 5.523 4.477 10 10 10h48c5.523 0 10-4.477 10-10v-44c0-5.523-4.477-10-10-10zm38 44h-28v-24h28z"/><path id="XMLID_1664_" d="m368 124c2.63 0 5.21-1.07 7.07-2.93s2.93-4.44 2.93-7.07-1.07-5.21-2.93-7.07-4.44-2.93-7.07-2.93-5.21 1.07-7.07 2.93-2.93 4.44-2.93 7.07 1.07 5.21 2.93 7.07 4.44 2.93 7.07 2.93z"/></g></g></svg>